<?xml version="1.0" encoding="UTF-8"?>
<svg version="1.1" xmlns="http://www.w3.org/2000/svg" width="16" height="16">
<path d="M0 0 C1.22589844 0.01353516 1.22589844 0.01353516 2.4765625 0.02734375 C3.41628906 0.04474609 3.41628906 0.04474609 4.375 0.0625 C4.375 1.0525 4.375 2.0425 4.375 3.0625 C5.035 3.7225 5.695 4.3825 6.375 5.0625 C6.1328125 7.2265625 6.1328125 7.2265625 5.5 9.6875 C5.29632813 10.50476562 5.09265625 11.32203125 4.8828125 12.1640625 C4.63144531 13.10378906 4.63144531 13.10378906 4.375 14.0625 C2.58341511 14.08946365 0.79171527 14.10887917 -1 14.125 C-1.99773438 14.13660156 -2.99546875 14.14820313 -4.0234375 14.16015625 C-6.625 14.0625 -6.625 14.0625 -8.625 13.0625 C-8.80173419 8.5557782 -8.76051182 5.09624456 -6.625 1.0625 C-4.21954362 -0.14022819 -2.67503047 -0.03821472 0 0 Z M-2.625 4.0625 C-1.625 6.0625 -1.625 6.0625 -1.625 6.0625 Z " fill="#2D2331" transform="translate(9.625,0.9375)"/>
<path d="M0 0 C1.22589844 0.01353516 1.22589844 0.01353516 2.4765625 0.02734375 C3.41628906 0.04474609 3.41628906 0.04474609 4.375 0.0625 C3.385 1.5475 3.385 1.5475 2.375 3.0625 C-0.75 3.25 -0.75 3.25 -3.625 3.0625 C-3.625 4.7125 -3.625 6.3625 -3.625 8.0625 C-4.615 8.0625 -5.605 8.0625 -6.625 8.0625 C-6.625 5.7525 -6.625 3.4425 -6.625 1.0625 C-4.21954362 -0.14022819 -2.67503047 -0.03821472 0 0 Z " fill="#ACAFB7" transform="translate(9.625,0.9375)"/>
<path d="M0 0 C1.134375 0.020625 2.26875 0.04125 3.4375 0.0625 C1.4375 2.0625 1.4375 2.0625 -1.5625 3.0625 C-2.2225 3.7225 -2.8825 4.3825 -3.5625 5.0625 C-4.125 3.125 -4.125 3.125 -4.5625 1.0625 C-3.5625 0.0625 -3.5625 0.0625 0 0 Z " fill="#A61218" transform="translate(12.5625,4.9375)"/>
</svg>
